<svg width="94" height="89" viewBox="0 0 94 89" fill="none" xmlns="http://www.w3.org/2000/svg">
<g filter="url(#filter0_d_20_6)">
<rect x="4" width="86" height="81" rx="13" fill="#282222"/>
<path d="M15.72 49.024C15.72 48.64 15.752 48.232 15.816 47.8C15.896 47.352 16.008 46.88 16.152 46.384C16.312 45.872 16.504 45.336 16.728 44.776L18.456 45.448C18.296 45.896 18.152 46.32 18.024 46.72C17.912 47.12 17.824 47.496 17.76 47.848C17.712 48.2 17.688 48.536 17.688 48.856C17.688 49.688 17.904 50.376 18.336 50.92C18.768 51.464 19.36 51.872 20.112 52.144C20.864 52.416 21.712 52.552 22.656 52.552C23.728 52.552 24.624 52.408 25.344 52.12C26.08 51.832 26.664 51.448 27.096 50.968C27.528 50.504 27.832 49.984 28.008 49.408C28.2 48.832 28.296 48.264 28.296 47.704C28.296 47.096 28.176 46.36 27.936 45.496C27.712 44.632 27.288 43.56 26.664 42.28L28.464 41.368C28.784 41.976 29.072 42.616 29.328 43.288C29.6 43.944 29.816 44.624 29.976 45.328C30.152 46.016 30.24 46.72 30.24 47.44C30.24 48.064 30.16 48.704 30 49.36C29.856 50.016 29.608 50.648 29.256 51.256C28.904 51.88 28.432 52.432 27.84 52.912C27.264 53.408 26.544 53.8 25.68 54.088C24.832 54.376 23.816 54.52 22.632 54.52C21.704 54.52 20.816 54.408 19.968 54.184C19.136 53.976 18.4 53.648 17.76 53.2C17.136 52.752 16.64 52.184 16.272 51.496C15.904 50.808 15.72 49.984 15.72 49.024ZM22.968 39.448C22.632 39.448 22.344 39.336 22.104 39.112C21.88 38.872 21.768 38.592 21.768 38.272C21.768 37.952 21.88 37.672 22.104 37.432C22.344 37.192 22.632 37.072 22.968 37.072C23.288 37.072 23.56 37.192 23.784 37.432C24.024 37.672 24.144 37.952 24.144 38.272C24.144 38.592 24.024 38.872 23.784 39.112C23.56 39.336 23.288 39.448 22.968 39.448ZM38.4137 49.12C37.1337 49.12 36.1497 48.976 35.4617 48.688C34.7897 48.4 34.3257 47.952 34.0697 47.344C33.8137 46.736 33.6697 45.952 33.6377 44.992L33.1577 31.864H35.1257L35.6057 44.224C35.6377 45.008 35.7097 45.616 35.8217 46.048C35.9497 46.464 36.2217 46.752 36.6377 46.912C37.0697 47.072 37.7417 47.152 38.6537 47.152C38.9897 47.152 39.2297 47.248 39.3737 47.44C39.5337 47.616 39.6137 47.832 39.6137 48.088C39.6137 48.344 39.5017 48.584 39.2777 48.808C39.0537 49.016 38.7657 49.12 38.4137 49.12ZM38.4141 49.12L38.6541 47.152C39.4541 47.152 40.0781 47.096 40.5261 46.984C40.9741 46.856 41.3101 46.624 41.5341 46.288C41.7741 45.936 41.9661 45.432 42.1101 44.776C42.2541 44.12 42.4301 43.264 42.6381 42.208L44.5101 42.568C44.4461 42.856 44.3741 43.176 44.2941 43.528C44.2141 43.88 44.1421 44.232 44.0781 44.584C44.0301 44.92 44.0061 45.216 44.0061 45.472C44.0061 45.712 44.0221 45.936 44.0541 46.144C44.0861 46.352 44.2061 46.528 44.4141 46.672C44.6221 46.816 44.9741 46.936 45.4701 47.032C45.9661 47.112 46.6781 47.152 47.6061 47.152C47.9421 47.152 48.1821 47.248 48.3261 47.44C48.4861 47.616 48.5661 47.832 48.5661 48.088C48.5661 48.344 48.4541 48.584 48.2301 48.808C48.0061 49.016 47.7181 49.12 47.3661 49.12C46.3901 49.12 45.6141 49.072 45.0381 48.976C44.4621 48.864 44.0221 48.704 43.7181 48.496C43.4301 48.288 43.2221 48.032 43.0941 47.728C42.9821 47.408 42.8941 47.04 42.8301 46.624L43.5501 46.672C43.2941 47.184 43.0141 47.6 42.7101 47.92C42.4221 48.24 42.0861 48.488 41.7021 48.664C41.3181 48.84 40.8541 48.96 40.3101 49.024C39.7821 49.088 39.1501 49.12 38.4141 49.12ZM44.4621 53.656C44.1261 53.656 43.8381 53.536 43.5981 53.296C43.3741 53.072 43.2621 52.8 43.2621 52.48C43.2621 52.16 43.3741 51.88 43.5981 51.64C43.8381 51.4 44.1261 51.28 44.4621 51.28C44.7821 51.28 45.0541 51.4 45.2781 51.64C45.5181 51.88 45.6381 52.16 45.6381 52.48C45.6381 52.8 45.5181 53.072 45.2781 53.296C45.0541 53.536 44.7821 53.656 44.4621 53.656ZM41.1741 53.656C40.8381 53.656 40.5501 53.536 40.3101 53.296C40.0861 53.072 39.9741 52.8 39.9741 52.48C39.9741 52.16 40.0861 51.88 40.3101 51.64C40.5501 51.4 40.8381 51.28 41.1741 51.28C41.4941 51.28 41.7661 51.4 41.9901 51.64C42.2301 51.88 42.3501 52.16 42.3501 52.48C42.3501 52.8 42.2301 53.072 41.9901 53.296C41.7661 53.536 41.4941 53.656 41.1741 53.656ZM52.8236 30.168C52.1356 30.168 51.6156 29.96 51.2636 29.544C50.9276 29.128 50.7596 28.64 50.7596 28.08C50.7596 27.616 50.8476 27.2 51.0236 26.832C51.2156 26.448 51.4796 26.144 51.8156 25.92C52.1516 25.68 52.5276 25.56 52.9436 25.56C53.3276 25.56 53.6716 25.672 53.9756 25.896C54.2796 26.12 54.5196 26.416 54.6956 26.784C54.8716 27.152 54.9596 27.544 54.9596 27.96C54.9596 28.584 54.7596 29.112 54.3596 29.544C53.9596 29.96 53.4476 30.168 52.8236 30.168ZM52.7996 28.92C53.0716 28.92 53.3036 28.832 53.4956 28.656C53.7036 28.48 53.8076 28.248 53.8076 27.96C53.8076 27.656 53.7036 27.408 53.4956 27.216C53.2876 27.008 53.0636 26.904 52.8236 26.904C52.5196 26.904 52.2796 27.008 52.1036 27.216C51.9436 27.424 51.8636 27.664 51.8636 27.936C51.8636 28.224 51.9516 28.464 52.1276 28.656C52.3036 28.832 52.5276 28.92 52.7996 28.92ZM47.3672 49.12L47.6072 47.152C48.0072 47.152 48.4152 47.152 48.8312 47.152C49.2632 47.136 49.6872 47.112 50.1032 47.08C50.5192 47.048 50.9192 47.008 51.3032 46.96C51.6872 46.912 52.0312 46.84 52.3352 46.744C52.8952 46.568 53.4072 46.336 53.8712 46.048C54.3512 45.76 54.7352 45.408 55.0232 44.992C55.3272 44.576 55.4792 44.096 55.4792 43.552C55.4792 43.184 55.3912 42.808 55.2152 42.424C55.0392 42.024 54.7992 41.688 54.4952 41.416C54.1912 41.144 53.8392 41.008 53.4392 41.008C53.0552 41.008 52.6952 41.136 52.3592 41.392C52.0392 41.648 51.7752 41.984 51.5672 42.4C51.3752 42.8 51.2792 43.216 51.2792 43.648C51.2792 44.16 51.4072 44.624 51.6632 45.04C51.9352 45.44 52.2632 45.784 52.6472 46.072C53.0312 46.36 53.4152 46.592 53.7992 46.768L51.5192 47.44C51.2632 47.248 50.9592 46.984 50.6072 46.648C50.2712 46.296 49.9672 45.864 49.6952 45.352C49.4392 44.84 49.3112 44.256 49.3112 43.6C49.3112 42.96 49.4232 42.368 49.6472 41.824C49.8872 41.264 50.1992 40.776 50.5832 40.36C50.9832 39.944 51.4312 39.624 51.9272 39.4C52.4392 39.16 52.9672 39.04 53.5112 39.04C54.2952 39.04 54.9832 39.256 55.5752 39.688C56.1672 40.12 56.6232 40.672 56.9432 41.344C57.2792 42 57.4472 42.688 57.4472 43.408C57.4472 44.096 57.3192 44.72 57.0632 45.28C56.8072 45.824 56.4552 46.312 56.0072 46.744C55.5752 47.176 55.0632 47.544 54.4712 47.848C53.8952 48.152 53.2792 48.4 52.6232 48.592C52.2552 48.704 51.8552 48.792 51.4232 48.856C51.0072 48.92 50.5672 48.968 50.1032 49C49.6392 49.048 49.1752 49.08 48.7112 49.096C48.2472 49.112 47.7992 49.12 47.3672 49.12ZM59.2472 49.12C58.4472 49.12 57.6152 49.072 56.7512 48.976C55.9032 48.864 55.0952 48.728 54.3272 48.568C53.5752 48.392 52.9512 48.2 52.4552 47.992L54.1112 46.792C54.5912 46.856 55.1592 46.92 55.8152 46.984C56.4712 47.032 57.1272 47.072 57.7832 47.104C58.4392 47.136 59.0072 47.152 59.4872 47.152C59.8232 47.152 60.0632 47.248 60.2072 47.44C60.3672 47.616 60.4472 47.832 60.4472 48.088C60.4472 48.344 60.3352 48.584 60.1112 48.808C59.8872 49.016 59.5992 49.12 59.2472 49.12ZM53.2952 36.568C52.9592 36.568 52.6712 36.456 52.4312 36.232C52.2072 35.992 52.0952 35.712 52.0952 35.392C52.0952 35.072 52.2072 34.792 52.4312 34.552C52.6712 34.312 52.9592 34.192 53.2952 34.192C53.6152 34.192 53.8872 34.312 54.1112 34.552C54.3512 34.792 54.4712 35.072 54.4712 35.392C54.4712 35.712 54.3512 35.992 54.1112 36.232C53.8872 36.456 53.6152 36.568 53.2952 36.568ZM65.9678 38.032L65.7518 36.88C66.8398 36.8 67.7198 36.632 68.3918 36.376C69.0798 36.12 69.5758 35.816 69.8798 35.464C70.1998 35.096 70.3598 34.728 70.3598 34.36C70.3598 34.072 70.2958 33.832 70.1678 33.64C70.0398 33.448 69.8478 33.352 69.5918 33.352C69.3518 33.352 69.1518 33.44 68.9918 33.616C68.8318 33.776 68.7518 33.976 68.7518 34.216C68.7518 34.52 68.8798 34.808 69.1358 35.08C69.3918 35.336 69.7118 35.528 70.0958 35.656L69.3518 36.424C68.8398 36.232 68.3998 35.952 68.0318 35.584C67.6798 35.216 67.5038 34.76 67.5038 34.216C67.5038 33.656 67.6958 33.168 68.0798 32.752C68.4798 32.336 68.9998 32.128 69.6398 32.128C70.2798 32.128 70.7598 32.352 71.0798 32.8C71.4158 33.232 71.5838 33.728 71.5838 34.288C71.5838 34.992 71.3518 35.616 70.8878 36.16C70.4238 36.704 69.7678 37.136 68.9198 37.456C68.0878 37.776 67.1038 37.968 65.9678 38.032ZM59.25 49.12L59.49 47.152C60.002 47.152 60.418 47.12 60.738 47.056C61.058 46.976 61.322 46.792 61.53 46.504C61.754 46.2 61.962 45.728 62.154 45.088C62.346 44.448 62.57 43.552 62.826 42.4L64.626 42.904C64.562 43.176 64.49 43.488 64.41 43.84C64.33 44.176 64.258 44.528 64.194 44.896C64.13 45.248 64.098 45.576 64.098 45.88C64.098 46.28 64.25 46.592 64.554 46.816C64.858 47.04 65.41 47.152 66.21 47.152C66.69 47.152 67.082 47.112 67.386 47.032C67.69 46.952 67.938 46.76 68.13 46.456C68.338 46.152 68.522 45.664 68.682 44.992C68.842 44.32 69.01 43.4 69.186 42.232L71.01 42.568C70.962 42.856 70.906 43.208 70.842 43.624C70.778 44.04 70.714 44.456 70.65 44.872C70.602 45.272 70.578 45.608 70.578 45.88C70.578 46.104 70.626 46.32 70.722 46.528C70.834 46.72 71.042 46.872 71.346 46.984C71.666 47.096 72.138 47.152 72.762 47.152C73.226 47.152 73.626 47.096 73.962 46.984C74.314 46.872 74.578 46.664 74.754 46.36C74.946 46.056 75.042 45.632 75.042 45.088C75.042 44.48 74.898 43.72 74.61 42.808C74.338 41.88 74.026 40.96 73.674 40.048L75.618 39.328C75.826 39.84 76.018 40.424 76.194 41.08C76.386 41.736 76.546 42.384 76.674 43.024C76.802 43.664 76.866 44.224 76.866 44.704C76.866 45.44 76.77 46.088 76.578 46.648C76.386 47.208 76.114 47.672 75.762 48.04C75.41 48.392 74.978 48.664 74.466 48.856C73.954 49.032 73.378 49.12 72.738 49.12C71.986 49.12 71.37 49.032 70.89 48.856C70.41 48.68 70.042 48.416 69.786 48.064C69.53 47.696 69.362 47.232 69.282 46.672H70.098C69.794 47.36 69.474 47.88 69.138 48.232C68.802 48.584 68.386 48.824 67.89 48.952C67.394 49.064 66.738 49.12 65.922 49.12C65.522 49.12 65.09 49.056 64.626 48.928C64.178 48.8 63.786 48.552 63.45 48.184C63.114 47.8 62.914 47.232 62.85 46.48L63.57 46.336C63.298 47.152 62.962 47.76 62.562 48.16C62.178 48.544 61.714 48.8 61.17 48.928C60.626 49.056 59.986 49.12 59.25 49.12Z" fill="#6949E9"/>
</g>
<defs>
<filter id="filter0_d_20_6" x="0" y="0" width="94" height="89" filterUnits="userSpaceOnUse" color-interpolation-filters="sRGB">
<feFlood flood-opacity="0" result="BackgroundImageFix"/>
<feColorMatrix in="SourceAlpha" type="matrix" values="0 0 0 0 0 0 0 0 0 0 0 0 0 0 0 0 0 0 127 0" result="hardAlpha"/>
<feOffset dy="4"/>
<feGaussianBlur stdDeviation="2"/>
<feComposite in2="hardAlpha" operator="out"/>
<feColorMatrix type="matrix" values="0 0 0 0 0 0 0 0 0 0 0 0 0 0 0 0 0 0 0.25 0"/>
<feBlend mode="normal" in2="BackgroundImageFix" result="effect1_dropShadow_20_6"/>
<feBlend mode="normal" in="SourceGraphic" in2="effect1_dropShadow_20_6" result="shape"/>
</filter>
</defs>
</svg>
